<svg width="84" height="84" viewBox="0 0 84 84" fill="none" xmlns="http://www.w3.org/2000/svg">
<path d="M83.8235 41.9118C83.8235 65.059 65.059 83.8235 41.9118 83.8235C18.7645 83.8235 0 65.059 0 41.9118C0 18.7645 18.7645 0 41.9118 0C65.059 0 83.8235 18.7645 83.8235 41.9118Z" fill="white"/>
<path d="M1.97232 54.6546V52.5645C2.35187 52.4417 7.6544 46.6119 8.26837 45.8699C9.28011 44.6401 10.8888 43.5781 12.4886 42.5219C14.278 41.3407 16.0563 40.1668 16.9757 38.7736L18.7171 34.8907C19.5004 33.4732 20.4837 32.0142 21.4756 30.5426C22.7243 28.6898 23.9864 26.8172 24.8792 24.9827L23.5397 26.1877L22.7359 26.0538V25.1166C22.7681 25.0372 22.8026 24.9536 22.8387 24.8661C23.2973 23.7545 24.0157 22.0135 23.5397 20.2965C23.535 20.2796 23.5303 20.2626 23.5256 20.2454C23.1787 18.9881 22.6421 17.043 23.5397 15.7441L26.7547 13.2002L30.1036 13.0663C30.6046 12.7791 31.057 12.2975 31.5193 11.8054C32.1076 11.179 32.7118 10.5357 33.4526 10.2546C35.6797 9.40412 37.6861 10.1099 39.4136 10.7176C39.7599 10.8394 40.095 10.9573 40.4184 11.0579C41.414 11.3682 42.2386 11.0217 43.0734 10.6708C43.9048 10.3215 44.7463 9.96785 45.7768 10.2546C47.2584 10.667 48.6006 11.4545 49.9151 12.2257C50.7698 12.7271 51.6127 13.2216 52.4747 13.6019C53.3261 13.9791 54.1478 14.2584 54.9466 14.5298C56.2266 14.9648 57.4476 15.3797 58.6368 16.1458C59.2969 16.5688 59.7678 17.3901 60.2331 18.2014C60.7435 19.0915 61.247 19.9696 61.9858 20.2965C62.6734 20.6034 63.3585 20.6562 64.0203 20.7072C64.766 20.7647 65.482 20.8199 66.1385 21.2337C68.0675 22.4537 69.1325 24.2938 70.212 26.1589C70.9441 27.4239 71.6829 28.7004 72.7025 29.8028C73.1893 30.3276 73.7682 30.6919 74.3287 31.0446C75.7344 31.9292 77.024 32.7408 76.4533 35.828L76.1854 35.9619L73.9081 34.7568L71.6308 35.0246C68.1032 35.1529 67.0483 34.4667 65.2008 33.1501C64.3412 33.2282 63.7998 33.3342 63.4593 33.9535C62.3876 35.337 63.3086 41.1613 63.5933 42.7904C63.6035 42.8464 63.4901 43.1778 63.3481 43.593C63.0234 44.5424 62.5488 45.9301 63.0574 45.4682V46.6732C62.2433 48.4009 61.2547 49.9869 60.2634 51.5775C58.1624 54.9484 56.0488 58.3396 55.5558 63.142L55.5798 63.1756C55.7553 63.4217 55.8083 63.4959 56.0916 63.6775C56.9472 64.0491 57.7348 64.3815 58.4655 64.6899C63.7572 66.923 66.0642 67.8966 69.577 73.3822C62.1956 79.8815 52.5092 83.8235 41.9023 83.8235C23.2025 83.8235 7.3637 71.5711 1.97232 54.6546Z" fill="white"/>
</svg>
